# xmcd
#
# Track frame offsets:
#	150
#	16265
#	30221
#	49897
#	68374
#	86542
#	102383
#	119178
#	133654
#	150956
#	170300
#	186086
#	199471
#	216149
#	230572
#	250115
#	265302
#	279354
#	295352
#
# Disc length: 4096 seconds
#
# Revision: 2
# Processed by: cddbd v1.5.2PL0 Copyright (c) Steve Scherf et al.
# Submitted via: audiograbber 1.83.01
#
DISCID=0c0ffe13
DTITLE=Various Artist - Hc022
DYEAR=1900
DGENRE=Country
TTITLE0=Twain, Shania	 - Love Gets Me Every Time	
TTITLE1=Wynonna - When Love Starts Talking
TTITLE2=Jackson, Alan	 - Between The Devil And Me	
TTITLE3=Loveless, Patty - You Don't Seem To Miss Me
TTITLE4=Keith, Toby - I'm So Happy I Can't Stop Crying
TTITLE5=Montgomery, John Michael - Angel In My Eyes	
TTITLE6=Alabama	 - Of Course I'm Alright
TTITLE7=Mccready, Mindy - What If I Do	
TTITLE8=Austin, Sherrie	 - One Solitary Tear		
TTITLE9=Mccann, Lila	 - I Wanna Fall In Love	
TTITLE10=Diamond Rio	 - Imagine That
TTITLE11=Byrd, Tracy	 - Good Ol' Fashion Love
TTITLE12=Chesney, Kenny - A Chance	
TTITLE13=Akins, Rhett - More Than Everything	
TTITLE14=Blackhawk	 - Postmarked Birmingham	
TTITLE15=Brandt, Paul - A Little In Love	
TTITLE16=Great Big Sea	 - Ordinary Day
TTITLE17=Womack, Lee Ann - You?ve Got To Talk To Me
TTITLE18=Lee, Scooter - Sexy Little Christmas Thang
EXTD=
EXTT0=
EXTT1=
EXTT2=
EXTT3=
EXTT4=
EXTT5=
EXTT6=
EXTT7=
EXTT8=
EXTT9=
EXTT10=
EXTT11=
EXTT12=
EXTT13=
EXTT14=
EXTT15=
EXTT16=
EXTT17=
EXTT18=
PLAYORDER=
